<svg width="18" height="18" viewBox="0 0 18 18" fill="none" xmlns="http://www.w3.org/2000/svg">
<path d="M4.83249 10.668C4.46868 10.6685 4.10935 10.7484 3.77961 10.9021C3.44986 11.0558 3.15764 11.2797 2.92335 11.558C2.68906 11.8363 2.51833 12.1624 2.4231 12.5136C2.32787 12.8647 2.31043 13.2324 2.37198 13.591C2.43354 13.9495 2.57262 14.2904 2.77951 14.5896C2.9864 14.8889 3.25611 15.1394 3.56982 15.3236C3.88353 15.5079 4.23367 15.6215 4.59581 15.6564C4.95794 15.6914 5.32334 15.6468 5.66649 15.526" stroke="#FFB21E" stroke-width="1.25" stroke-linecap="round" stroke-linejoin="round"/>
<path d="M2.55348 12.0043C2.05474 11.7643 1.62364 11.4038 1.29909 10.9554C0.974545 10.5071 0.766771 9.98492 0.694528 9.43615C0.622285 8.88738 0.687847 8.32926 0.885295 7.81217C1.08274 7.29508 1.40586 6.8353 1.82548 6.47435M1.85048 6.40735C1.57639 5.99847 1.45596 5.50574 1.51055 5.01653C1.56513 4.52732 1.7912 4.07325 2.14866 3.73484C2.50613 3.39643 2.97189 3.19555 3.46335 3.16781C3.95481 3.14008 4.44022 3.2873 4.83348 3.58335M5.03248 3.63735C4.89968 3.35492 4.83203 3.04626 4.83455 2.73418C4.83706 2.4221 4.90967 2.11458 5.04701 1.83433C5.18435 1.55408 5.38291 1.30827 5.62801 1.11508C5.87311 0.921877 6.15849 0.786223 6.46307 0.718139C6.76764 0.650055 7.08362 0.651281 7.38766 0.721726C7.69169 0.792172 7.97601 0.930036 8.21961 1.12513C8.4632 1.32022 8.65985 1.56756 8.79501 1.84887C8.93017 2.13017 9.00039 2.43825 9.00048 2.75035V15.6673C8.98983 16.1023 8.80957 16.5158 8.4982 16.8196C8.18684 17.1234 7.76903 17.2935 7.33398 17.2935C6.89893 17.2935 6.48113 17.1234 6.16976 16.8196C5.85839 16.5158 5.67814 16.1023 5.66748 15.6673M9.00048 4.83335C9.00048 5.49639 9.26387 6.13227 9.73271 6.60111C10.2016 7.06995 10.8374 7.33335 11.5005 7.33335M13.1675 10.6673C13.5313 10.6678 13.8906 10.7477 14.2204 10.9015C14.5501 11.0552 14.8423 11.279 15.0766 11.5574C15.3109 11.8357 15.4816 12.1618 15.5769 12.513C15.6721 12.8641 15.6896 13.2318 15.628 13.5903C15.5664 13.9489 15.4274 14.2897 15.2205 14.589C15.0136 14.8883 14.7439 15.1388 14.4302 15.323C14.1164 15.5073 13.7663 15.6208 13.4042 15.6558C13.042 15.6907 12.6766 15.6462 12.3335 15.5253" stroke="#FFB21E" stroke-width="1.25" stroke-linecap="round" stroke-linejoin="round"/>
<path d="M15.447 12.0048C15.9455 11.7645 16.3764 11.404 16.7008 10.9556C17.0252 10.5072 17.2329 9.98515 17.3051 9.43647C17.3774 8.88779 17.3119 8.32976 17.1146 7.81271C16.9173 7.29567 16.5944 6.83586 16.175 6.47477M16.15 6.40777C16.4241 5.9989 16.5445 5.50617 16.4899 5.01696C16.4353 4.52775 16.2093 4.07368 15.8518 3.73527C15.4944 3.39686 15.0286 3.19598 14.5371 3.16824C14.0457 3.14051 13.5603 3.28772 13.167 3.58377M9 2.75077C9.00033 2.43868 9.07072 2.13063 9.20597 1.84937C9.34123 1.5681 9.53791 1.32079 9.78149 1.12567C10.0251 0.930553 10.3094 0.792608 10.6134 0.722011C10.9174 0.651414 11.2334 0.649966 11.538 0.717775C11.8425 0.78607 12.1278 0.921889 12.3728 1.11521C12.6178 1.30852 12.8163 1.5544 12.9536 1.83469C13.0908 2.11497 13.1634 2.42251 13.1659 2.73459C13.1684 3.04667 13.1008 3.35533 12.968 3.63777M12.333 15.6678C12.3223 16.1027 12.1421 16.5162 11.8307 16.82C11.5194 17.1239 11.1015 17.2939 10.6665 17.2939C10.2315 17.2939 9.81364 17.1239 9.50228 16.82C9.19091 16.5162 9.01065 16.1027 9 15.6678" stroke="#FFB21E" stroke-width="1.25" stroke-linecap="round" stroke-linejoin="round"/>
</svg>
