<svg width="18" height="12" viewBox="0 0 18 12" fill="none" xmlns="http://www.w3.org/2000/svg">
<path d="M8.99903 7.66603C9.21794 7.66603 9.43472 7.62291 9.63696 7.53914C9.83921 7.45536 10.023 7.33257 10.1778 7.17778C10.3326 7.02298 10.4554 6.83921 10.5391 6.63696C10.6229 6.43472 10.666 6.21794 10.666 5.99903C10.666 5.78012 10.6229 5.56335 10.5391 5.3611C10.4554 5.15885 10.3326 4.97508 10.1778 4.82028C10.023 4.66549 9.83921 4.5427 9.63696 4.45892C9.43472 4.37515 9.21794 4.33203 8.99903 4.33203C8.55692 4.33203 8.13291 4.50766 7.82028 4.82028C7.50766 5.13291 7.33203 5.55692 7.33203 5.99903C7.33203 6.44115 7.50766 6.86516 7.82028 7.17778C8.13291 7.4904 8.55692 7.66603 8.99903 7.66603Z" stroke="#1125D6" stroke-width="1.25" stroke-linecap="round" stroke-linejoin="round"/>
<path d="M16.5 6C14.926 8.492 12.098 11 9 11C5.902 11 3.074 8.492 1.5 6C3.416 3.632 5.66 1 9 1C12.34 1 14.584 3.632 16.5 6Z" stroke="#1125D6" stroke-width="1.25" stroke-linecap="round" stroke-linejoin="round"/>
</svg>
