<svg width="19" height="19" viewBox="0 0 19 19" fill="none" xmlns="http://www.w3.org/2000/svg">
<path d="M6.833 9.333H11.833M9.333 17.666C10.9811 17.666 12.5922 17.1773 13.9626 16.2616C15.3329 15.346 16.401 14.0446 17.0317 12.5219C17.6624 10.9992 17.8274 9.32376 17.5059 7.70732C17.1844 6.09087 16.3907 4.60607 15.2253 3.44068C14.0599 2.27529 12.5751 1.48165 10.9587 1.16012C9.34224 0.838589 7.66676 1.00361 6.1441 1.63432C4.62144 2.26502 3.32001 3.33308 2.40436 4.70344C1.48872 6.07379 1 7.68489 1 9.333C1 10.851 1.406 12.275 2.115 13.5L1.416 17.25L5.166 16.551C6.43237 17.2836 7.86998 17.6683 9.333 17.666Z" stroke="#00BB8F" stroke-width="1.25" stroke-linecap="round" stroke-linejoin="round"/>
</svg>
